<?xml version="1.0" encoding="UTF-8" standalone="no"?>
<!-- Created with Inkscape (http://www.inkscape.org/) -->

<svg
   xmlns:dc="http://purl.org/dc/elements/1.1/"
   xmlns:cc="http://creativecommons.org/ns#"
   xmlns:rdf="http://www.w3.org/1999/02/22-rdf-syntax-ns#"
   xmlns:svg="http://www.w3.org/2000/svg"
   xmlns="http://www.w3.org/2000/svg"
   xmlns:sodipodi="http://sodipodi.sourceforge.net/DTD/sodipodi-0.dtd"
   xmlns:inkscape="http://www.inkscape.org/namespaces/inkscape"
   width="450"
   height="70"
   viewBox="0 0 119.0625 18.520834"
   version="1.1"
   id="svg8"
   inkscape:version="0.92.1 r15371"
   sodipodi:docname="buttons.svg">
  <defs
     id="defs2" />
  <sodipodi:namedview
     id="base"
     pagecolor="#ffffff"
     bordercolor="#666666"
     borderopacity="1.0"
     inkscape:pageopacity="0"
     inkscape:pageshadow="2"
     inkscape:zoom="2.0000001"
     inkscape:cx="219.09956"
     inkscape:cy="-20.380549"
     inkscape:document-units="mm"
     inkscape:current-layer="layer1"
     showgrid="false"
     units="px"
     showguides="true"
     inkscape:guide-bbox="true"
     inkscape:window-width="1920"
     inkscape:window-height="1017"
     inkscape:window-x="-8"
     inkscape:window-y="-8"
     inkscape:window-maximized="1">
    <sodipodi:guide
       position="19.84375,0"
       orientation="1,0"
       id="guide8417"
       inkscape:locked="false"
       inkscape:label=""
       inkscape:color="rgb(0,0,255)" />
    <sodipodi:guide
       position="39.6875,0"
       orientation="1,0"
       id="guide8419"
       inkscape:locked="false"
       inkscape:label="83"
       inkscape:color="rgb(0,0,255)" />
    <sodipodi:guide
       position="59.53125,0"
       orientation="1,0"
       id="guide8421"
       inkscape:locked="false"
       inkscape:label=""
       inkscape:color="rgb(0,0,255)" />
    <sodipodi:guide
       position="79.375,0"
       orientation="1,0"
       id="guide8432"
       inkscape:locked="false"
       inkscape:label=""
       inkscape:color="rgb(0,0,255)" />
    <sodipodi:guide
       position="99.218751,0"
       orientation="1,0"
       id="guide8434"
       inkscape:locked="false"
       inkscape:label=""
       inkscape:color="rgb(0,0,255)" />
  </sodipodi:namedview>
  <metadata
     id="metadata5">
    <rdf:RDF>
      <cc:Work
         rdf:about="">
        <dc:format>image/svg+xml</dc:format>
        <dc:type
           rdf:resource="http://purl.org/dc/dcmitype/StillImage" />
        <dc:title></dc:title>
      </cc:Work>
    </rdf:RDF>
  </metadata>
  <g
     inkscape:label="Layer 1"
     inkscape:groupmode="layer"
     id="layer1"
     transform="translate(0,-278.47915)">
    <path
       style="fill:none;stroke:#ffffff;stroke-width:1.32291663;stroke-linecap:round;stroke-linejoin:round;stroke-miterlimit:4;stroke-dasharray:none;stroke-opacity:1"
       d="m 5.7800898,282.80392 8.6703362,5.00582 -8.6703362,5.00582 z"
       id="path8423"
       inkscape:connector-curvature="0" />
    <path
       style="opacity:1;fill:none;fill-opacity:1;fill-rule:nonzero;stroke:#ffffff;stroke-width:1.32291663;stroke-linecap:round;stroke-linejoin:round;stroke-miterlimit:4;stroke-dasharray:none;stroke-opacity:1;paint-order:stroke markers fill"
       d="m 27.683455,287.60738 6.303726,-3.63946 2.045709,3.54327 -6.303726,3.63946 z"
       id="rect8427"
       inkscape:connector-curvature="0" />
    <path
       style="fill:none;stroke:#ffffff;stroke-width:1.32291663;stroke-linecap:round;stroke-linejoin:miter;stroke-miterlimit:4;stroke-dasharray:none;stroke-opacity:1"
       d="m 25.974785,291.84539 -3.414244,-1.55394"
       id="path8433"
       inkscape:connector-curvature="0" />
    <path
       inkscape:connector-curvature="0"
       id="path8435"
       d="m 32.651677,291.5227 3.568535,-1.15645"
       style="fill:none;stroke:#ffffff;stroke-width:1.32291663;stroke-linecap:round;stroke-linejoin:miter;stroke-miterlimit:4;stroke-dasharray:none;stroke-opacity:1" />
    <path
       style="fill:none;stroke:#ffffff;stroke-width:1.32291663;stroke-linecap:round;stroke-linejoin:miter;stroke-miterlimit:4;stroke-dasharray:none;stroke-opacity:1"
       d="m 26.632698,290.26181 -2.117294,-3.09658"
       id="path8437"
       inkscape:connector-curvature="0" />
    <path
       inkscape:connector-curvature="0"
       id="path8439"
       d="m 47.685535,285.24503 6.303726,-3.63946 2.045709,3.54327 -6.303726,3.63946 z"
       style="opacity:1;fill:none;fill-opacity:1;fill-rule:nonzero;stroke:#ffffff;stroke-width:1.32291663;stroke-linecap:round;stroke-linejoin:round;stroke-miterlimit:4;stroke-dasharray:none;stroke-opacity:1;paint-order:stroke markers fill" />
    <path
       style="font-style:normal;font-variant:normal;font-weight:normal;font-stretch:normal;font-size:medium;line-height:1.25;font-family:Impact;-inkscape-font-specification:Impact;letter-spacing:0px;word-spacing:0px;fill:#ffffff;fill-opacity:1;stroke:none;stroke-width:0.18819234"
       d="m 44.675088,284.69103 -1.311032,9.91825 h 2.670638 l 0.15348,-1.78283 h 0.925007 l 0.128675,1.78283 h 2.640147 l -0.591177,-3.97236 -0.299206,0.1726 -3.532601,-6.11849 z m 1.97249,2.21743 c 0.130688,1.64995 0.261017,3.03684 0.391705,4.15995 h -0.882116 c 0.06535,-0.87807 0.229032,-2.26496 0.490411,-4.15995 z"
       id="path8445"
       inkscape:connector-curvature="0" />
    <text
       xml:space="preserve"
       style="font-style:normal;font-variant:normal;font-weight:normal;font-stretch:normal;font-size:17.63888741px;line-height:1.25;font-family:Impact;-inkscape-font-specification:Impact;letter-spacing:0px;word-spacing:0px;fill:#000000;fill-opacity:1;stroke:none;stroke-width:0.26458332"
       x="66.712799"
       y="289.91293"
       id="text8454"><tspan
         sodipodi:role="line"
         id="tspan8452"
         x="66.712799"
         y="307.57092"
         style="stroke-width:0.26458332" /></text>
    <g
       aria-label="3.0"
       style="font-style:normal;font-variant:normal;font-weight:normal;font-stretch:normal;font-size:11.03696537px;line-height:1.25;font-family:Impact;-inkscape-font-specification:Impact;letter-spacing:0px;word-spacing:0px;fill:#ffffff;fill-opacity:1;stroke:none;stroke-width:0.16555449"
       id="text8458"
       transform="matrix(1.0490845,0,0,1.0490845,-3.5550499,-14.09476)">
      <path
         d="m 67.321346,287.43657 q 0.495801,0.16707 0.738313,0.5497 0.242511,0.37724 0.242511,1.77841 0,1.04011 -0.237122,1.61675 -0.237123,0.57125 -0.81915,0.87304 -0.582027,0.2964 -1.492793,0.2964 -1.034715,0 -1.627521,-0.3449 -0.587417,-0.3503 -0.776037,-0.85149 -0.18323,-0.50658 -0.18323,-1.75147 v -0.68981 h 2.177213 v 1.41734 q 0,0.56586 0.06467,0.72215 0.07006,0.15089 0.301792,0.15089 0.25329,0 0.334127,-0.194 0.08084,-0.19401 0.08084,-1.01316 v -0.60359 q 0,-0.50119 -0.113172,-0.73292 -0.113172,-0.23173 -0.334127,-0.30179 -0.220955,-0.0754 -0.856873,-0.0862 v -1.26645 q 0.776036,0 0.959267,-0.0593 0.183231,-0.0593 0.264068,-0.25868 0.08084,-0.1994 0.08084,-0.62514 v -0.48502 q 0,-0.45808 -0.097,-0.60358 -0.09162,-0.14551 -0.291014,-0.14551 -0.226344,0 -0.31257,0.15628 -0.08084,0.1509 -0.08084,0.65209 v 0.71676 h -2.177213 v -0.74371 q 0,-1.25028 0.571249,-1.6868 0.571249,-0.44191 1.816141,-0.44191 1.557462,0 2.112544,0.60898 0.555082,0.60897 0.555082,1.69219 0,0.73292 -0.199398,1.06166 -0.199399,0.32335 -0.700589,0.5928 z"
         style="fill:#ffffff;fill-opacity:1;stroke-width:0.16555449"
         id="path8460"
         inkscape:connector-curvature="0" />
      <path
         d="m 70.544054,290.6 v 1.77842 H 68.900365 V 290.6 Z"
         style="fill:#ffffff;fill-opacity:1;stroke-width:0.16555449"
         id="path8462"
         inkscape:connector-curvature="0" />
      <path
         d="m 76.278102,286.60665 v 2.91013 q 0,0.99161 -0.107783,1.44429 -0.107782,0.45269 -0.447298,0.8461 -0.339516,0.39341 -0.81915,0.56586 -0.479634,0.17245 -1.07244,0.17245 -0.781425,0 -1.298783,-0.17784 -0.517358,-0.18323 -0.824539,-0.56586 -0.307181,-0.38263 -0.436521,-0.80298 -0.129339,-0.42575 -0.129339,-1.34729 v -3.04486 q 0,-1.20178 0.204787,-1.79998 0.210177,-0.59819 0.824539,-0.95927 0.619752,-0.36107 1.498182,-0.36107 0.716756,0 1.282616,0.25329 0.56586,0.2479 0.846096,0.60897 0.280235,0.36108 0.37724,0.81377 0.102393,0.45268 0.102393,1.44429 z m -2.177214,-0.73293 q 0,-0.6952 -0.07006,-0.86765 -0.06467,-0.17784 -0.312571,-0.17784 -0.242511,0 -0.323348,0.18862 -0.07545,0.18323 -0.07545,0.85687 v 4.25743 q 0,0.75986 0.07006,0.91615 0.07545,0.15628 0.317959,0.15628 0.242511,0 0.317959,-0.18323 0.07545,-0.18323 0.07545,-0.82454 z"
         style="fill:#ffffff;fill-opacity:1;stroke-width:0.16555449"
         id="path8464"
         inkscape:connector-curvature="0" />
    </g>
    <path
       style="fill:#ffffff;fill-opacity:1;stroke:none;stroke-width:0.0704105px;stroke-linecap:butt;stroke-linejoin:miter;stroke-opacity:1"
       d="m 89.133573,282.57862 -0.440066,0.6689 0.158423,0.79211 -0.01774,0.10039 a 3.5598236,3.5598236 0 0 0 -0.6733,0.18648 l -0.06986,-0.0831 -0.258814,-0.76516 -0.715519,-0.35921 -0.487923,0.28164 -0.04662,0.79927 0.533304,0.60674 0.04153,0.11456 a 3.5598236,3.5598236 0 0 0 -0.479396,0.48572 l -0.119093,-0.0432 -0.606878,-0.53331 -0.799269,0.0466 -0.281642,0.48793 0.359203,0.71552 0.765302,0.25881 0.105478,0.0887 a 3.5598236,3.5598236 0 0 0 -0.169562,0.64745 l -0.139859,0.0248 -0.792118,-0.15843 -0.6689,0.44007 v 0.56328 l 0.6689,0.44007 0.792118,-0.15843 0.140821,0.025 a 3.5598236,3.5598236 0 0 0 0.175477,0.64126 l -0.112355,0.0946 -0.765302,0.25882 -0.359203,0.71551 0.281642,0.48793 0.799269,0.0466 0.606878,-0.53331 0.139171,-0.0505 a 3.5598236,3.5598236 0 0 0 0.467157,0.47128 l -0.04937,0.13615 -0.533304,0.60688 0.04662,0.79927 0.487923,0.28164 0.715519,-0.3592 0.258814,-0.7653 0.09228,-0.10975 a 3.5598236,3.5598236 0 0 0 0.644422,0.17713 l 0.0242,0.13656 -0.158424,0.79212 0.440066,0.6689 h 0.563284 l 0.440066,-0.6689 -0.158424,-0.79212 0.02242,-0.12625 a 3.5598236,3.5598236 0 0 0 0.658999,-0.17217 l 0.07949,0.0945 0.258813,0.7653 0.715519,0.3592 0.487922,-0.28164 0.04662,-0.79927 -0.533306,-0.60688 -0.03809,-0.10493 a 3.5598236,3.5598236 0 0 0 0.496449,-0.48778 l 0.0986,0.0358 0.606878,0.53331 0.799271,-0.0466 0.281641,-0.48793 -0.359204,-0.71551 -0.765301,-0.25882 -0.07591,-0.0638 a 3.5598236,3.5598236 0 0 0 0.186754,-0.68059 l 0.0931,-0.0165 0.792117,0.15843 0.6689,-0.44007 v -0.56328 l -0.6689,-0.44007 -0.792117,0.15843 -0.08568,-0.0151 a 3.5598236,3.5598236 0 0 0 -0.183313,-0.69104 l 0.06505,-0.0547 0.765301,-0.25882 0.359204,-0.71552 -0.281641,-0.48792 -0.799271,-0.0466 -0.606878,0.53331 -0.08017,0.0291 a 3.5598236,3.5598236 0 0 0 -0.506351,-0.50456 l 0.02957,-0.0817 0.533306,-0.60674 -0.04662,-0.79927 -0.487922,-0.28164 -0.715519,0.3592 -0.258813,0.76517 -0.06037,0.0718 a 3.5598236,3.5598236 0 0 0 -0.683477,-0.17919 l -0.01705,-0.0964 0.158423,-0.79212 -0.440066,-0.6689 z m -1.826961,4.37219 a 0.6721275,0.6721275 0 0 1 0.672063,0.67206 0.6721275,0.6721275 0 0 1 -0.672063,0.6722 0.6721275,0.6721275 0 0 1 -0.6722,-0.6722 0.6721275,0.6721275 0 0 1 0.6722,-0.67206 z m 2.112315,0 a 0.6721275,0.6721275 0 0 1 0.671926,0.67206 0.6721275,0.6721275 0 0 1 -0.671926,0.6722 0.6721275,0.6721275 0 0 1 -0.6722,-0.6722 0.6721275,0.6721275 0 0 1 0.6722,-0.67206 z m 2.112178,0 a 0.6721275,0.6721275 0 0 1 0.672064,0.67206 0.6721275,0.6721275 0 0 1 -0.672064,0.6722 0.6721275,0.6721275 0 0 1 -0.672062,-0.6722 0.6721275,0.6721275 0 0 1 0.672062,-0.67206 z"
       id="path8494"
       inkscape:connector-curvature="0" />
    <path
       style="opacity:1;fill:none;fill-opacity:0.60508082;fill-rule:nonzero;stroke:#ffffff;stroke-width:1.26477909;stroke-linecap:round;stroke-linejoin:round;stroke-miterlimit:4;stroke-dasharray:none;stroke-opacity:1;paint-order:stroke markers fill"
       d="m 107.05345,283.28803 -3.2165,3.2165 v 5.54648 h 10.23822 v -8.76298 z"
       id="rect8436"
       inkscape:connector-curvature="0" />
    <circle
       style="opacity:1;fill:none;fill-opacity:0.60508082;fill-rule:nonzero;stroke:#ffffff;stroke-width:1.26477909;stroke-linecap:round;stroke-linejoin:round;stroke-miterlimit:4;stroke-dasharray:none;stroke-opacity:1;paint-order:stroke markers fill"
       id="path8441"
       cx="109.49284"
       cy="288.07208"
       r="1.2073507" />
    <path
       style="fill:none;stroke:#ffffff;stroke-width:1.26477909;stroke-linecap:round;stroke-linejoin:round;stroke-miterlimit:4;stroke-dasharray:none;stroke-opacity:1"
       d="m 103.83695,286.50453 h 2.63829 v 3.31149 h -2.57199"
       id="path8443"
       inkscape:connector-curvature="0"
       sodipodi:nodetypes="cc" />
  </g>
</svg>
